REM DIRINDEX 1\2\6,1\2\7,1\2\8,1\2\9,1\3\10,1\3\11,1\4\12,1\4\13,1\4\14,1\5\15,1\5\16,1\5\17
REM DIRNAME folder01,folder02,folder03,folder04,folder05,folder06,folder07,folder08,folder09,folder10,folder11,folder12,folder13,folder14,folder15,folder16,folder17
TITLE ""
FILE "1900_3_079 sec14_1301_1316.mp3" MP3
  TRACK 01 AUDIO
    TITLE "0:"
    INDEX 01 00:00:00
  TRACK 02 AUDIO
    TITLE "15:cjc020_8581"
    INDEX 01 00:00:15
  TRACK 03 AUDIO
    TITLE "0:"
    INDEX 01 00:02:16
  TRACK 04 AUDIO
    TITLE "17:cjc020_8582"
    INDEX 01 00:03:19
  TRACK 05 AUDIO
    TITLE "0:"
    INDEX 01 00:04:46
  TRACK 06 AUDIO
    TITLE "16:cjc020_8583"
    INDEX 01 00:04:48
  TRACK 07 AUDIO
    TITLE "0:"
    INDEX 01 00:05:73
  TRACK 08 AUDIO
    TITLE "17:cjc020_8584"
    INDEX 01 00:06:59
  TRACK 09 AUDIO
    TITLE "0:"
    INDEX 01 00:07:70
  TRACK 10 AUDIO
    TITLE "16:cjc020_8585"
    INDEX 01 00:08:01
  TRACK 11 AUDIO
    TITLE "0:"
    INDEX 01 00:09:34
  TRACK 12 AUDIO
    TITLE "17:cjc020_8586"
    INDEX 01 00:10:19
  TRACK 13 AUDIO
    TITLE "0:"
    INDEX 01 00:11:39
  TRACK 14 AUDIO
    TITLE "16:cjc020_8587"
    INDEX 01 00:11:44
  TRACK 15 AUDIO
    TITLE "0:"
    INDEX 01 00:12:63
  TRACK 16 AUDIO
    TITLE "17:cjc020_8588"
    INDEX 01 00:13:47
  TRACK 17 AUDIO
    TITLE "0:"
    INDEX 01 00:15:01
  TRACK 18 AUDIO
    TITLE "16:cjc020_8589"
    INDEX 01 00:15:11
  TRACK 19 AUDIO
    TITLE "0:"
    INDEX 01 00:16:24
  TRACK 20 AUDIO
    TITLE "17:cjc020_8590"
    INDEX 01 00:17:10
  TRACK 21 AUDIO
    TITLE "0:"
    INDEX 01 00:18:33
  TRACK 22 AUDIO
    TITLE "16:cjc020_8591"
    INDEX 01 00:18:42
  TRACK 23 AUDIO
    TITLE "0:"
    INDEX 01 00:19:52
  TRACK 24 AUDIO
    TITLE "17:cjc020_8592"
    INDEX 01 00:20:34
  TRACK 25 AUDIO
    TITLE "0:"
    INDEX 01 00:21:62
  TRACK 26 AUDIO
    TITLE "16:cjc020_8593"
    INDEX 01 00:21:66
  TRACK 27 AUDIO
    TITLE "0:"
    INDEX 01 00:22:70
  TRACK 28 AUDIO
    TITLE "17:cjc020_8594"
    INDEX 01 00:23:53
  TRACK 29 AUDIO
    TITLE "0:"
    INDEX 01 00:25:01
  TRACK 30 AUDIO
    TITLE "16:cjc020_8595"
    INDEX 01 00:25:07
  TRACK 31 AUDIO
    TITLE "0:"
    INDEX 01 00:26:15
  TRACK 32 AUDIO
    TITLE "17:cjc020_8596"
    INDEX 01 00:26:73
  TRACK 33 AUDIO
    TITLE "0:"
    INDEX 01 00:28:04
  TRACK 34 AUDIO
    TITLE "16:cjc020_8597"
    INDEX 01 00:28:13
  TRACK 35 AUDIO
    TITLE "0:"
    INDEX 01 00:29:07
  TRACK 36 AUDIO
    TITLE "17:cjc020_8598"
    INDEX 01 00:29:68
  TRACK 37 AUDIO
    TITLE "0:"
    INDEX 01 00:30:69
  TRACK 38 AUDIO
    TITLE "16:cjc020_8599"
    INDEX 01 00:31:04
  TRACK 39 AUDIO
    TITLE "0:"
    INDEX 01 00:32:13
  TRACK 40 AUDIO
    TITLE "17:cjc020_8600"
    INDEX 01 00:32:72
  TRACK 41 AUDIO
    TITLE "0:"
    INDEX 01 00:34:02
  TRACK 42 AUDIO
    TITLE "16:cjc020_8601"
    INDEX 01 00:34:08
  TRACK 43 AUDIO
    TITLE "0:"
    INDEX 01 00:34:73
  TRACK 44 AUDIO
    TITLE "17:cjc020_8602"
    INDEX 01 00:35:68
  TRACK 45 AUDIO
    TITLE "0:"
    INDEX 01 00:37:01
  TRACK 46 AUDIO
    TITLE "16:cjc020_8603"
    INDEX 01 00:37:12
  TRACK 47 AUDIO
    TITLE "0:"
    INDEX 01 00:38:22
  TRACK 48 AUDIO
    TITLE "17:cjc020_8604"
    INDEX 01 00:39:07
  TRACK 49 AUDIO
    TITLE "0:"
    INDEX 01 00:40:13
  TRACK 50 AUDIO
    TITLE "16:cjc020_8605"
    INDEX 01 00:40:21
  TRACK 51 AUDIO
    TITLE "0:"
    INDEX 01 00:41:16
  TRACK 52 AUDIO
    TITLE "17:cjc020_8606"
    INDEX 01 00:42:02
  TRACK 53 AUDIO
    TITLE "0:"
    INDEX 01 00:45:12
  TRACK 54 AUDIO
    TITLE "16:cjc020_8607"
    INDEX 01 00:45:71
  TRACK 55 AUDIO
    TITLE "0:"
    INDEX 01 00:46:70
  TRACK 56 AUDIO
    TITLE "17:cjc020_8608"
    INDEX 01 00:47:54
  TRACK 57 AUDIO
    TITLE "0:"
    INDEX 01 00:48:61
  TRACK 58 AUDIO
    TITLE "16:cjc020_8609"
    INDEX 01 00:48:67
  TRACK 59 AUDIO
    TITLE "0:"
    INDEX 01 00:50:07
  TRACK 60 AUDIO
    TITLE "17:cjc020_8610"
    INDEX 01 00:50:72
  TRACK 61 AUDIO
    TITLE "0:"
    INDEX 01 00:52:30
  TRACK 62 AUDIO
    TITLE "16:cjc020_8611"
    INDEX 01 00:52:41
  TRACK 63 AUDIO
    TITLE "0:"
    INDEX 01 00:53:60
  TRACK 64 AUDIO
    TITLE "17:cjc020_8612"
    INDEX 01 00:54:46
  TRACK 65 AUDIO
    TITLE "0:"
    INDEX 01 00:55:46
  TRACK 66 AUDIO
    TITLE "16:cjc020_8613"
    INDEX 01 00:55:51
  TRACK 67 AUDIO
    TITLE "0:"
    INDEX 01 00:57:05
